<svg role="img" viewBox="0 0 139.112 24" xmlns="http://www.w3.org/2000/svg"><title>Cason Kervis's Sign</title><path d="M4.479 23.807c-2.695-.665-4.253-2.993-4.46-6.66C-.321 11.115 4.112 3.276 9.24.834c2.51-1.195 4.982-.975 5.696.503.314.642.246 2.241-.147 3.507-.956 3.096-2.835 4.914-3.855 3.72-.254-.299-.242-.333.253-.945 2.192-2.7 3.22-5.379 2.381-6.214-.484-.492-1.852-.42-2.986.147-2.797 1.399-6.067 6.35-7.484 11.34-.54 1.9-.695 5.053-.317 6.538.585 2.28 1.874 3.372 3.98 3.372 2.003 0 3.64-.805 5.605-2.748a7.9 7.9 0 0 0 1.882-2.593c.9-1.814 1.467-2.589 2.888-3.938 1.274-1.21 2.861-2.094 4.056-2.257 1.591-.22 3.137.616 3.33 1.8.17 1.05-.083 1.462-1.043 1.693l-.412.094.087-.813c.28-2.721-2.586-2.562-4.839.273-.884 1.11-1.867 2.872-2.298 4.13-.378 1.093-.408 2.552-.068 2.896.873.87 2.91-.858 5.795-4.917.948-1.338 1.22-1.486 1.878-1.02.19.128.34.324.34.434s-.378.926-.839 1.814c-.99 1.894-1.092 2.623-.453 3.262.302.303.484.367.805.291 1.043-.257 3.088-2.124 3.402-3.114.185-.579 1.02-1.595 1.217-1.474.499.31 3.507-3.776 3.511-4.763 0-1.111.613-2.192 1.24-2.192.412 0 .484.245.454 1.52-.023 1.035.06 1.443.695 3.382.661 2.022.722 2.328.733 3.769.012 1.765-.011 1.746 1.233 1.028.918-.53 1.534-1.263 1.973-2.348.835-2.078 2.305-3.386 3.348-2.986.19.072.148.212-.226.764-.832 1.228-1.652 3.564-1.656 4.694 0 .783.37 1.456.87 1.58.563.144 1.481-.37 2.483-1.387l.809-.82-.556-.726c-1.013-1.326-1.406-3.337-.945-4.864.45-1.493 1.429-2.268 2.861-2.257 1.361.011 1.966.707 1.966 2.253 0 1.19-.321 2.256-1.18 3.93-.377.738-.646 1.388-.59 1.445.231.234 1.759.072 2.439-.257 1.236-.601 1.591-1.24 1.992-3.58.2-1.183.484-1.459 1.508-1.47 1.02-.008 1.047.654.166 3.817-.068.239.23-.045.81-.763 1.934-2.423 3.552-3.572 5.041-3.587 2.174-.019 2.896 2.211 1.686 5.224-.627 1.572-.718 2.456-.283 2.846.926.839 2.668-.537 4.244-3.36.537-.96.942-1.165.753-.378-.167.68-1.323 2.494-2.136 3.356-1.244 1.32-2.57 1.795-3.818 1.372-1.273-.435-1.557-1.512-.914-3.489.514-1.583.59-3.054.17-3.47-.352-.355-1.38-.34-2.094.03-.957.496-2.363 2.099-3.893 4.434-.832 1.263-1.561 2.355-1.626 2.43-.15.175-1.455-.305-1.557-.574-.038-.102.087-.582.284-1.062.192-.484.4-1.017.453-1.187l.098-.313-.604.306c-1.017.521-1.928.688-2.688.499l-.673-.17-1.096 1.08c-2.974 2.919-5.968 2.537-5.968-.755v-.64l-.726.522a6.8 6.8 0 0 1-1.527.78c-.442.143-.801.343-.801.445 0 .363-1.077 1.433-1.792 1.777-.578.28-.99.355-1.954.359-1.319 0-2.109-.284-2.778-1.002-.39-.416-.956-1.606-.964-2.015 0-.204-.25-.03-.896.628-1.153 1.168-2.381 1.788-3.545 1.788q-.854 0-1.278-.28c-.502-.329-1.066-1.508-.967-2.026.037-.2.011-.363-.06-.363a.13.13 0 0 0-.133.132c0 .072-.503.654-1.115 1.293-1.663 1.724-2.809 2.132-4.173 1.474q-1.134-.552-1.134-1.984v-.643l-1.346 1.282c-2.494 2.377-5.178 3.296-7.744 2.66m26.772-2.086a3 3 0 0 0 .775-.484c.37-.347.465-.88.15-.884-.472 0-1.874-.82-2.634-1.538-1.043-.987-1.3-.942-1.3.245 0 1.94 1.474 3.243 3.009 2.661m1.504-2.45c.057-.343.06-1.012.008-1.488-.117-1.081-.87-4.46-.994-4.45-.046.008-.397.492-.775 1.086a21 21 0 0 1-1.338 1.837c-.355.42-.65.82-.65.892 0 .374 1.686 1.92 2.52 2.317.507.238.965.43 1.021.434.057 0 .152-.283.208-.627m12.292-2.737c1.229-2.404 1.217-4.724-.019-4.736-.404 0-1.213.768-1.52 1.444-.502 1.108-.302 3.236.409 4.32.253.39.265.394.484.106.12-.162.416-.673.646-1.134m39.9 7.326c-1.524-.632-4.434-4.434-6.883-8.985-.548-1.017-1.029-1.848-1.07-1.852-.042 0-.73 2.132-1.523 4.74-.98 3.201-1.55 4.838-1.758 5.03a2.53 2.53 0 0 1-1.697.617c-.578 0-.628-.117-.31-.733.688-1.342 7.166-20.162 7.182-20.872.018-.726-.257-.942-1.021-.798-.782.147-1.81 1.228-2.514 2.65-.532 1.084-.574 1.266-.574 2.513 0 1.482-.019 1.505-.93 1.123-1.493-.624-1.145-3.043.71-4.94C76.47.4 78.877-.523 79.898.3c.699.567.605 1.255-.817 5.836-.718 2.31-1.285 4.214-1.273 4.233.015.012 1.028-.778 2.245-1.757 2.664-2.147 5.798-5.243 7.253-7.167.582-.77 1.089-1.38 1.119-1.35a4 4 0 0 1 .193.643c.491 2.11-2.208 5.107-8.682 9.654-1.116.782-2.026 1.47-2.026 1.53 0 .243 2.252 3.705 3.3 5.07 1.073 1.402 3.877 4.27 5.223 5.34.355.284.646.605.646.707 0 .269-.801.817-1.323.9-.238.038-.604 0-.808-.083m45.153-1.04c-1.225-.325-1.92-.956-2.43-2.211l-.345-.85-.755.763c-1.399 1.421-3.553 2.056-4.8 1.41-.753-.39-1.252-1.41-1.191-2.427l.045-.775-.48.284c-.756.446-1.36.57-1.962.404-.79-.215-1.262-.706-1.678-1.73l-.367-.908-.28.499a24 24 0 0 1-2.445 3.538c-1.032 1.145-1.92 1.678-2.8 1.678-1.13 0-1.55-.669-1.762-2.786l-.106-1.028-1.036 1.104c-2.21 2.362-4.71 3.07-6.062 1.72-.78-.779-.722-1.675.257-4.101.585-1.448.763-2.08.763-2.707 0-.763-.038-.854-.688-1.474-.378-.363-.748-.661-.82-.661s-.25.325-.4.726c-.723 1.957-2.37 5.05-3.236 6.074-1.777 2.105-3.977 3.288-6.123 3.288-1.323 0-2.068-.246-2.737-.892-.74-.718-1.013-1.433-1.005-2.627.015-1.943 1.077-4.075 3.016-6.048 1.822-1.852 3.848-2.698 5.307-2.215.869.284 1.11.67 1.107 1.747q-.011 1.784-1.674 3.258c-.9.794-3.156 1.928-4.358 2.188-1.475.318-1.376.227-1.376 1.274 0 1.75.816 2.487 2.62 2.359 1.22-.087 2.267-.552 3.469-1.55 1.7-1.398 2.797-3.126 4.146-6.509.514-1.285.583-1.587.439-1.901-.265-.586-.023-1.448.57-2.041.435-.439.568-.495.757-.34.264.219.287.725.068 1.308-.235.612-.08.88.907 1.572 1.05.737 1.803 1.55 1.939 2.102.208.82-.057 2.26-.692 3.753-.903 2.135-.831 2.88.287 2.872.85 0 1.777-.517 2.91-1.613 1.588-1.531 1.781-1.883 1.902-3.474.057-.74.14-1.44.181-1.557.114-.295.896-.431 1.286-.223.328.173.328.2.219 3.349-.117 3.424-.057 3.828.597 3.828.915 0 2.325-1.606 3.84-4.377.734-1.338.892-1.768 1.013-2.751.246-1.973.836-2.839 1.705-2.51.82.314.926 1.157.302 2.347-.381.726-.423.945-.423 2.427 0 1.516.026 1.66.37 2.026.567.605 1.369.548 2.14-.151.48-.427.688-.802 1.017-1.796.816-2.472 1.991-4.41 2.986-4.925.551-.287.82-.28 1.126.03.359.356.22.771-.922 2.74-1.478 2.556-1.784 3.316-1.868 4.688-.09 1.42.129 1.878.964 2.037.836.155 1.837-.306 2.846-1.312.624-.623.915-1.058 1.044-1.542.174-.65 1.005-1.723 1.228-1.587.499.31 3.508-3.776 3.512-4.763 0-1.111.612-2.192 1.24-2.192.411 0 .483.246.453 1.52-.023 1.035.06 1.443.695 3.382.662 2.023.722 2.329.734 3.769.008 1.489.022 1.557.313 1.47 1.059-.325 2.06-1.172 2.835-2.4.68-1.077.945-.903.374.242-.665 1.323-1.655 2.17-3.099 2.642-.438.144-.794.34-.794.442 0 .363-1.077 1.433-1.769 1.758-.767.359-2.313.529-3.046.336m1.708-1.1a3 3 0 0 0 .775-.484c.37-.347.461-.88.151-.884-.476 0-1.874-.82-2.634-1.538-1.043-.987-1.3-.942-1.3.245 0 1.94 1.474 3.243 3.008 2.661m1.505-2.45c.056-.343.06-1.012.008-1.488-.118-1.081-.874-4.46-.995-4.45-.049.008-.396.492-.774 1.086a21 21 0 0 1-1.338 1.837c-.36.42-.65.82-.65.892 0 .374 1.681 1.92 2.52 2.317.507.238.964.43 1.021.434.053 0 .148-.283.204-.627zm-42.38-1.983c1.237-.488 3.274-1.913 3.947-2.763.642-.813.971-1.664.888-2.276-.05-.34-.12-.374-.831-.37-.643.003-.9.098-1.535.567-.416.306-1.096.982-1.5 1.496-1.048 1.33-2.223 3.667-1.849 3.667.038 0 .435-.148.88-.321M125.5 8.2c-.465-.465-.397-.877.25-1.482.914-.858 2.37-.892 2.664-.06.457 1.296-1.909 2.547-2.914 1.542"/></svg>